# xmcd database file
#
# Track frame offsets:
# 150
# 15602
# 31019
# 46046
# 60505
# 76064
# 91055
# 106720
# 121817
# 136915
# 152368
# 168317
# 182918
# 198229
#
# Disc length: 2853 seconds
#
# Revision: 0
# Processed by: cddbd v1.4PL0 Copyright (c) Steve Scherf et al.
# Submitted via: CD-Runner 2003.05
#
DISCID=920b230e
DTITLE=Bessie Tucker and Ida May Mack - Bessie Tucker and Ida Mae Mack
DYEAR=1979
DGENRE=blues
TTITLE0=Fryin' Pan Skillet Blues
TTITLE1=Fort Worth And Denver Blues
TTITLE2=When You Lose Your Daddy
TTITLE3=My Man Has Quit Me
TTITLE4=Elm Street Blues
TTITLE5=Mr. Forty-Nine Blues
TTITLE6=Bessie's Moan
TTITLE7=Balck Name Moan
TTITLE8=Mr. Moore Blues
TTITLE9=Wrong Doin' Daddy
TTITLE10=The Dummy
TTITLE11=Good-bye Rider
TTITLE12=Got Cut All To Pieces
TTITLE13=Penitentiary
EXTD=
EXTT0=
EXTT1=
EXTT2=
EXTT3=
EXTT4=
EXTT5=
EXTT6=
EXTT7=
EXTT8=
EXTT9=
EXTT10=
EXTT11=
EXTT12=
EXTT13=
PLAYORDER=
